<svg height="231" preserveAspectRatio="xMidYMid" viewBox="0 0 256 231" width="256" xmlns="http://www.w3.org/2000/svg" xmlns:xlink="http://www.w3.org/1999/xlink"><mask id="a" fill="#fff"><path d="m252.925854 103.237077-52.59851-91.47741c-4.024765-7.13740997-11.526804-11.61124227-19.719442-11.759667h-105.2170206c-8.1937902.14438548-15.697683 4.61932363-19.7194416 11.759667l-52.61850995 91.237416c-4.07057313 7.08329-4.07057313 15.796063 0 22.879353l52.59851055 91.997394c3.9805351 7.238877 11.4644648 11.861304 19.7194416 12.179656h105.217021c8.254539-.283342 15.751906-4.88659 19.739441-12.119657l52.59851-91.47741c4.098861-7.197108 4.098861-16.022234 0-23.219342z" fill="#fff"/></mask><path d="m252.925854 103.237077-52.59851-91.47741c-4.024765-7.13740997-11.526804-11.61124227-19.719442-11.759667h-105.2170206c-8.1937902.14438548-15.697683 4.61932363-19.7194416 11.759667l-52.61850995 91.237416c-4.07057313 7.08329-4.07057313 15.796063 0 22.879353l52.59851055 91.997394c3.9805351 7.238877 11.4644648 11.861304 19.7194416 12.179656h105.217021c8.254539-.283342 15.751906-4.88659 19.739441-12.119657l52.59851-91.47741c4.098861-7.197108 4.098861-16.022234 0-23.219342z" fill="#4285f4" mask="url(#a)"/><path d="m187.167605 84.731603-7.251894 7.9093455 1.633668 46.9978485-6.87336 9.961393-3.984557-3.984557h3.665792v-16.296838l-17.591819-17.591819-13.296689 6.646071-44.1008531-44.2005199-21.2376884 11.37591-2.6298075 22.0345999 7.4511214 40.323716 10.7981493 10.578999-4.9209278 6.992897 64.2473581 65.758167h26.839613c8.222903-.282256 17.128565-5.671118 21.100817-12.876464l43.778808-76.003418z" mask="url(#a)" opacity=".07"/><g fill="#fff"><path d="m88.8287399 165.478649 10.539153-10.539153-15.7987682-15.798768v-49.1694327l15.7987682-15.7987682-10.539153-10.539153-21.0982289 21.0982289v59.648817z" mask="url(#a)"/><circle cx="105.1455" cy="114.556012" mask="url(#a)" r="7.471044"/><circle cx="127.498865" cy="114.556012" mask="url(#a)" r="7.471044"/><circle cx="149.852229" cy="114.556012" mask="url(#a)" r="7.471044"/><path d="m166.069376 63.6333741-10.539153 10.539153 15.798768 15.7987682v49.1694327l-15.798768 15.798768 10.539153 10.539153 21.098229-21.098229v-59.648817z" mask="url(#a)"/></g></svg>